<svg xmlns="http://www.w3.org/2000/svg" viewBox="0 0 813.313 152.314"><g id="Group_1" data-name="Group 1" transform="translate(-112.246 -236.172)"><path id="Path_1" data-name="Path 1" d="M198.984,249.147l7.358-12.976h48l.027.04h58.477l7.469,12.935H198.984Z" fill="#ffd100"></path><path id="Path_2" data-name="Path 2" d="M306.231,310.991l-142.989-.027,7.385-12.935H348.541l7.469,12.935h-49.8Z" fill="#ffd100"></path><path id="Path_3" data-name="Path 3" d="M290.488,295.7l-164.742-.036,7.474-12.944,149.741-.058Z" fill="#ffd100"></path><path id="Path_4" data-name="Path 4" d="M164.264,329.036H354.9l-7.474,12.944-175.674.032Z" fill="#ffd100"></path><path id="Path_5" data-name="Path 5" d="M303.963,319.044l-4.233,7.336H116.484l-4.238-7.336,3.236-5.6h185.3Z" fill="#ffd100"></path><path id="Path_6" data-name="Path 6" d="M182.2,360.1l154.758.031-7.483,12.958-139.752.04Z" fill="#ffd100"></path><path id="Path_7" data-name="Path 7" d="M289.17,344.449,281.8,357.384H133.357l-7.042-12.935Z" fill="#ffd100"></path><path id="Path_8" data-name="Path 8" d="M284.352,280.263H180.886l7.5-12.989h88.024l.027.04h54.368l7.469,12.935H284.343Z" fill="#ffd100"></path><path id="Path_9" data-name="Path 9" d="M178.733,251.55h86.261l7.42,13.011H143.7l7.469-12.935h27.522Z" fill="#ffd100"></path><path id="Path_10" data-name="Path 10" d="M263.872,388.485H150.288l-6.926-12.935H271.341Z" fill="#ffd100"></path><path id="Path_11" data-name="Path 11" d="M418.449,363.6v5.879h-12.2V387.76h-7.111V369.475h-12.2V363.6Z" fill="#000"></path><path id="Path_12" data-name="Path 12" d="M464.273,363.6v5.879H441.644v3.213h19.621v5.776H441.644v3.412h22.629v5.884H434.5V363.6Z" fill="#000"></path><path id="Path_13" data-name="Path 13" d="M506.1,363.6a8.053,8.053,0,0,1,5.617,2.1,6.4,6.4,0,0,1,2.3,5.1v1.816h-7.131V371.9a2.2,2.2,0,0,0-.788-1.719,2.583,2.583,0,0,0-1.878-.706H490.121a2.683,2.683,0,0,0-1.893.706,2.2,2.2,0,0,0-.773,1.719v7.557a2.263,2.263,0,0,0,.788,1.714,3.117,3.117,0,0,0,1.878.706h14.105a3.012,3.012,0,0,0,1.9-.706,2.192,2.192,0,0,0,.768-1.714v-.691h7.131v1.822a6.482,6.482,0,0,1-2.322,5.09,7.959,7.959,0,0,1-5.6,2.082H488.243a8.125,8.125,0,0,1-5.618-2.1,6.62,6.62,0,0,1-2.3-5.07v-9.8a6.911,6.911,0,0,1,2.318-5.1,8.164,8.164,0,0,1,5.6-2.1Z" fill="#000"></path><path id="Path_14" data-name="Path 14" d="M537.244,363.6v8.8h18.306v-8.8h7.112V387.76h-7.112v-9.475H537.244v9.475h-7.106V363.6Z" fill="#000"></path><path id="Path_15" data-name="Path 15" d="M585.622,363.6,605.5,379.7V363.6h7.132V387.76H605.7l-19.856-16.106V387.76h-7.132V363.6Z" fill="#000"></path><path id="Path_16" data-name="Path 16" d="M654.989,363.6a8.022,8.022,0,0,1,5.618,2.1,6.385,6.385,0,0,1,2.3,5.091v9.8a6.5,6.5,0,0,1-2.322,5.09,7.965,7.965,0,0,1-5.6,2.077h-18.4a8.169,8.169,0,0,1-5.6-2.1,6.646,6.646,0,0,1-2.3-5.07v-9.8a6.9,6.9,0,0,1,2.323-5.091,8.109,8.109,0,0,1,5.577-2.1Zm-18.4,6.584a2.194,2.194,0,0,0-.768,1.719v7.552a2.273,2.273,0,0,0,.783,1.718,3.2,3.2,0,0,0,1.883.707h14.627a3.059,3.059,0,0,0,1.9-.707,2.2,2.2,0,0,0,.767-1.718V371.9a2.178,2.178,0,0,0-.788-1.719,2.539,2.539,0,0,0-1.877-.706H638.485a2.652,2.652,0,0,0-1.9.706" fill="#000"></path><path id="Path_17" data-name="Path 17" d="M686.169,363.6v18.28h21.437v5.884H679.021V363.6Z" fill="#000"></path><path id="Path_18" data-name="Path 18" d="M749.958,363.6a8.021,8.021,0,0,1,5.617,2.1,6.385,6.385,0,0,1,2.3,5.091v9.8a6.494,6.494,0,0,1-2.322,5.09,7.964,7.964,0,0,1-5.6,2.077h-18.4a8.165,8.165,0,0,1-5.6-2.1,6.644,6.644,0,0,1-2.3-5.07v-9.8a6.9,6.9,0,0,1,2.323-5.091,8.109,8.109,0,0,1,5.577-2.1Zm-18.4,6.584a2.194,2.194,0,0,0-.768,1.719v7.552a2.261,2.261,0,0,0,.788,1.718,3.169,3.169,0,0,0,1.878.707H748.08a3.059,3.059,0,0,0,1.9-.707,2.207,2.207,0,0,0,.768-1.718V371.9a2.181,2.181,0,0,0-.788-1.719,2.543,2.543,0,0,0-1.878-.706H733.453a2.652,2.652,0,0,0-1.9.706" fill="#000"></path><path id="Path_19" data-name="Path 19" d="M807.388,363.6v5.878h-23.6a2.7,2.7,0,0,0-1.893.706,2.2,2.2,0,0,0-.772,1.719v7.557a2.263,2.263,0,0,0,.788,1.714,3.117,3.117,0,0,0,1.877.706h17.3v-3.009h-8.022v-5.612h15.154v14.5H781.91a8.133,8.133,0,0,1-5.618-2.1,6.617,6.617,0,0,1-2.3-5.07v-9.8a6.925,6.925,0,0,1,2.318-5.1,8.162,8.162,0,0,1,5.6-2.1Z" fill="#000"></path><rect id="Rectangle_1" data-name="Rectangle 1" width="7.106" height="24.164" transform="translate(824.266 363.595)" fill="#000"></rect><path id="Path_20" data-name="Path 20" d="M877.2,363.6v5.879H854.572v3.213h19.621v5.776H854.572v3.412H877.2v5.884H847.424V363.6Z" fill="#000"></path><path id="Path_21" data-name="Path 21" d="M901.435,363.6h14.99a8.152,8.152,0,0,1,5.736,2.179,6.78,6.78,0,0,1,2.384,5.234v.143H917.6v-.143a1.211,1.211,0,0,0-.466-1.049,1.667,1.667,0,0,0-1.171-.445l-13.353.021a1.717,1.717,0,0,0-1.172.445,1.329,1.329,0,0,0-.466,1.048,1.454,1.454,0,0,0,.481,1.07,1.7,1.7,0,0,0,1.157.424q2.363,0,7.311-.02c3.3-.041,5.73-.041,7.295,0a8.386,8.386,0,0,1,5.9,2.246,7.167,7.167,0,0,1,0,10.785,8.413,8.413,0,0,1-5.9,2.225H901.594a8.456,8.456,0,0,1-5.9-2.225,7.063,7.063,0,0,1-2.441-5.393v-.123h6.728v.164a1.787,1.787,0,0,0,.563,1.254,1.978,1.978,0,0,0,1.356.5h14.7a2.022,2.022,0,0,0,1.377-.5,1.556,1.556,0,0,0,.547-1.233,1.653,1.653,0,0,0-.568-1.254,1.624,1.624,0,0,0-1.356-.506H901.45a8.33,8.33,0,0,1-5.755-2.18,7,7,0,0,1-2.385-5.254,6.7,6.7,0,0,1,2.344-5.152,8.659,8.659,0,0,1,5.679-2.261h.1Z" fill="#000"></path><path id="Path_22" data-name="Path 22" d="M469.87,236.9l58.1,91.488H501.058l-12.621-20.035H426.531l-12.755,20.035H386.932l58.1-91.488Zm-31.05,52.088h37.261L457.52,259.6Z" fill="#000"></path><path id="Path_23" data-name="Path 23" d="M624.734,236.9a30.337,30.337,0,0,1,21.37,8.078,25.6,25.6,0,0,1,8.815,19.57v.4H630.612c.133-.266.153-.4.066-.4a6.4,6.4,0,0,0-2.271-5.009,6.792,6.792,0,0,0-5.541-2.006H570.845a6.824,6.824,0,0,0-5.48,2.073,6.413,6.413,0,0,0-2.2,4.942,6.84,6.84,0,0,0,2.267,5.009,7.623,7.623,0,0,0,5.413,2.067q9.209,0,28.446-.067,19.231-.2,28.379,0a30.87,30.87,0,0,1,22.041,8.35q9.277,8.28,9.081,20.1.062,11.818-9.148,20.1-8.947,8.287-21.974,8.282H567.1a31.836,31.836,0,0,1-22.041-8.282,26.208,26.208,0,0,1-9.081-20.1h23.376v.133a7.537,7.537,0,0,0,2.6,5.741,8.824,8.824,0,0,0,6.206,2.4h57.163a10.272,10.272,0,0,0,6.278-2.338,7.558,7.558,0,0,0,2.537-5.674,7.412,7.412,0,0,0-2.6-5.745,8.847,8.847,0,0,0-6.211-2.4H566.368A30.885,30.885,0,0,1,545,284.044q-8.811-8.151-8.815-19.5a24.781,24.781,0,0,1,8.815-19.3,32.215,32.215,0,0,1,21.37-8.349Z" fill="#000"></path><path id="Path_24" data-name="Path 24" d="M749.942,236.9l58.1,91.488H781.131l-12.622-20.035H706.6l-12.754,20.035H667L725.1,236.9Zm-31.05,52.088h37.261L737.592,259.6Z" fill="#000"></path><path id="Path_25" data-name="Path 25" d="M817.31,328.385V236.9h24.977v71.12h83.271v20.367Z" fill="#000"></path></g></svg>
